<svg xmlns="http://www.w3.org/2000/svg" viewBox="0 0 64 64" role="img" aria-label="AI meets SDLC">
  <rect width="64" height="64" fill="#f6f4ef" />
  <g fill="#0b0b0b">
    <path d="M5 5h54v4H5zM5 55h54v4H5zM5 5h4v54H5zM55 5h4v54h-4z" />
    <path fill-rule="evenodd" d="M32 13a19 19 0 1 1-16 29l6-4a12 12 0 1 0 10-18z" />
    <path d="M32 13h17v17h-7v-8L32 32l-5-5 10-10h-5z" />
    <path d="M32 51H15V34h7v8l10-10 5 5-10 10h5z" />
    <circle cx="32" cy="32" r="8" />
    <circle cx="14" cy="50" r="4" />
    <circle cx="50" cy="14" r="4" />
  </g>
</svg>
