<svg xmlns="http://www.w3.org/2000/svg" viewBox="0 0 640 160" role="img" aria-labelledby="title desc">
  <title id="title">AI meets SDLC</title>
  <desc id="desc">A refined black and white seminar logo with a lifecycle ring, AI signal node, and outlined Finlandica wordmark.</desc>
  <rect width="640" height="160" fill="#f6f4ef" />
  <g fill="#0b0b0b">
    <path d="M16 16h128v6H16zM16 138h128v6H16zM16 16h6v128h-6zM138 16h6v128h-6z" />
    <path fill-rule="evenodd" d="M80 34a46 46 0 1 1-39 70l8-5a36 36 0 1 0 31-55z" />
    <path d="M80 34h39v39h-10V51L86 74l-7-7 23-23H80z" />
    <path d="M80 126H41V87h10v22l23-23 7 7-23 23h22z" />
    <circle cx="80" cy="80" r="14" />
    <circle cx="25" cy="126" r="6" />
    <circle cx="135" cy="34" r="6" />
    <path d="m47 104 5 5-22 22-5-5zM113 56l-5-5 22-22 5 5z" />
    <rect x="184" y="36" width="6" height="88" />
    <path d="M167 568H95V700H423L592 0H430L396 165H226L192 0H30ZM369 293 327 498 320 561Q320 571 311 571Q303 571 302 561L295 498L253 293Z" transform="translate(216.000 72.000) scale(0.046000 -0.046000)" />
    <path d="M50 132H141V568H50V700H394V568H303V132H394V0H50Z" transform="translate(244.198 72.000) scale(0.046000 -0.046000)" />
    <path d="M59 511H203V473Q224 493 257.5 508.0Q291 523 334 523Q375 523 406.0 511.5Q437 500 467 472Q495 496 533.0 509.5Q571 523 610 523Q687 523 739.0 479.5Q791 436 791 355V0H639V324Q639 389 569 389Q533 389 517.0 372.5Q501 356 501 324V0H349V324Q349 355 332.0 372.0Q315 389 282 389Q211 389 211 324V0H59Z" transform="translate(279.112 72.000) scale(0.046000 -0.046000)" />
    <path d="M50 163Q44 211 44 249Q44 289 50 338Q61 419 117.0 470.0Q173 521 263 521Q371 521 425.5 457.0Q480 393 480 271L459 219H185Q186 211 186 202Q190 154 221.0 134.0Q252 114 296 114Q322 114 353.0 122.0Q384 130 406 144L454 34Q421 12 377.0 1.0Q333 -10 287 -10Q189 -10 125.5 38.5Q62 87 50 163ZM342 316Q334 407 265 407Q227 407 209.0 384.0Q191 361 187 316Z" transform="translate(317.982 72.000) scale(0.046000 -0.046000)" />
    <path d="M50 163Q44 211 44 249Q44 289 50 338Q61 419 117.0 470.0Q173 521 263 521Q371 521 425.5 457.0Q480 393 480 271L459 219H185Q186 211 186 202Q190 154 221.0 134.0Q252 114 296 114Q322 114 353.0 122.0Q384 130 406 144L454 34Q421 12 377.0 1.0Q333 -10 287 -10Q189 -10 125.5 38.5Q62 87 50 163ZM342 316Q334 407 265 407Q227 407 209.0 384.0Q191 361 187 316Z" transform="translate(341.718 72.000) scale(0.046000 -0.046000)" />
    <path d="M95 119V389H22V511H83Q100 511 107.5 522.5Q115 534 121 573L130 630H243V511H335V389H243V151Q243 142 248.0 137.0Q253 132 261 132H340V0H215Q163 0 129.0 33.5Q95 67 95 119Z" transform="translate(365.454 72.000) scale(0.046000 -0.046000)" />
    <path d="M40 41 83 152Q118 129 151.5 119.5Q185 110 224 110Q268 110 288.5 123.0Q309 136 309 158Q309 173 296.5 183.0Q284 193 259 195L209 198Q44 210 44 350Q44 430 100.5 476.5Q157 523 251 523Q308 523 347.5 513.5Q387 504 429 481L388 374Q334 404 260 404Q217 404 196.5 391.5Q176 379 176 358Q176 343 187.5 334.0Q199 325 221 324L271 322Q349 317 395.0 278.0Q441 239 441 167Q441 84 385.0 36.5Q329 -11 238 -11Q181 -11 136.0 1.5Q91 14 40 41Z" transform="translate(382.566 72.000) scale(0.046000 -0.046000)" />
    <path d="M45 53 90 186Q133 159 173.0 146.5Q213 134 257 134Q304 134 332.5 154.0Q361 174 361 211Q361 243 340.0 263.0Q319 283 280 288L244 293Q156 305 100.0 356.5Q44 408 44 495Q44 595 110.5 653.5Q177 712 301 712Q360 712 413.5 696.5Q467 681 498 658L452 536Q382 572 306 572Q252 572 226.5 553.0Q201 534 201 505Q201 450 264 442L304 437Q405 424 463.0 367.0Q521 310 521 218Q521 107 452.0 48.5Q383 -10 261 -10Q144 -10 45 53Z" transform="translate(216.000 121.000) scale(0.050000 -0.050000)" />
    <path d="M69 700H284Q412 700 485.0 639.0Q558 578 567 470Q572 410 572 350Q572 290 567 230Q559 122 485.5 61.0Q412 0 284 0H69ZM413 252Q417 292 417 350Q417 408 413 449Q408 503 377.0 536.0Q346 569 289 568H230V132H289Q346 132 377.0 165.0Q408 198 413 252Z" transform="translate(244.200 121.000) scale(0.050000 -0.050000)" />
    <path d="M69 700H232V142H429V0H69Z" transform="translate(275.050 121.000) scale(0.050000 -0.050000)" />
    <path d="M50 219Q45 284 45 350Q45 417 50 482Q55 549 90.0 601.0Q125 653 183.0 682.5Q241 712 311 712Q421 712 490 657L444 529Q421 551 394.0 560.5Q367 570 334 570Q280 570 249.0 543.0Q218 516 214 468Q209 398 209 350Q209 306 214 234Q218 185 247.5 158.0Q277 131 327 131Q365 131 389.5 140.0Q414 149 443 169L490 42Q456 15 416.0 1.5Q376 -12 325 -12Q245 -12 184.5 17.5Q124 47 89.5 99.0Q55 151 50 219Z" transform="translate(297.600 121.000) scale(0.050000 -0.050000)" />
    <path d="M79 139H219V558H61V648L382 712L380 139H513V0H79Z" transform="translate(434.000 112.000) scale(0.022000 -0.022000)" />
    <path d="M30 64 77 193Q118 158 156.5 143.5Q195 129 239 129Q294 129 322.0 150.5Q350 172 350 212Q350 248 323.0 267.5Q296 287 244 287H168V414H244Q291 414 315.5 434.5Q340 455 340 494Q340 531 312.5 553.5Q285 576 236 576Q147 576 85 537L41 657Q88 688 136.5 700.0Q185 712 245 712Q305 712 361.5 690.5Q418 669 454.0 623.5Q490 578 490 509Q490 454 464.5 414.0Q439 374 396 351Q444 332 472.0 292.5Q500 253 500 194Q500 128 463.5 82.0Q427 36 371.0 13.0Q315 -10 255 -10Q187 -10 133.5 6.5Q80 23 30 64Z" transform="translate(447.946 112.000) scale(0.022000 -0.022000)" />
    <path d="M124 59Q84 98 64.5 160.5Q45 223 45 350Q45 477 65.0 540.0Q85 603 124 642Q160 677 208.5 694.5Q257 712 311 712Q365 712 413.5 694.5Q462 677 498 642Q537 603 557.0 540.0Q577 477 577 350Q577 223 557.5 160.5Q538 98 498 59Q462 23 413.5 5.5Q365 -12 311 -12Q257 -12 208.5 5.5Q160 23 124 59ZM382 160Q399 179 406.0 216.0Q413 253 413 350Q413 447 406.0 484.0Q399 521 382 540Q358 569 311 569Q264 569 240 540Q223 521 216.0 484.0Q209 447 209 350Q209 253 216.0 216.0Q223 179 240 160Q264 131 311 131Q358 131 382 160Z" transform="translate(470.976 112.000) scale(0.022000 -0.022000)" />
    <path d="M50 219Q45 284 45 350Q45 417 50 482Q55 549 90.0 601.0Q125 653 183.0 682.5Q241 712 311 712Q421 712 490 657L444 529Q421 551 394.0 560.5Q367 570 334 570Q280 570 249.0 543.0Q218 516 214 468Q209 398 209 350Q209 306 214 234Q218 185 247.5 158.0Q277 131 327 131Q365 131 389.5 140.0Q414 149 443 169L490 42Q456 15 416.0 1.5Q376 -12 325 -12Q245 -12 184.5 17.5Q124 47 89.5 99.0Q55 151 50 219Z" transform="translate(486.660 112.000) scale(0.022000 -0.022000)" />
    <path d="M178 559H23V700H494V559H340V0H178Z" transform="translate(500.122 112.000) scale(0.022000 -0.022000)" />
    <path d="M212 380 295 420Q328 434 342.5 453.0Q357 472 357 500Q357 533 331.5 554.0Q306 575 262 575Q182 575 99 533L53 657Q105 687 157.0 699.0Q209 711 271 711Q330 711 385.0 689.5Q440 668 475.5 621.0Q511 574 511 502Q511 431 476.5 383.5Q442 336 376 305L295 266Q204 223 204 159V142H502V0H50V139Q50 224 88.5 281.5Q127 339 212 380Z" transform="translate(434.000 137.000) scale(0.022000 -0.022000)" />
    <path d="M139 59Q99 98 79.5 160.5Q60 223 60 350Q60 478 79.5 540.0Q99 602 139 642Q175 677 223.5 694.5Q272 712 326 712Q380 712 428.5 694.5Q477 677 513 642Q553 602 572.5 540.0Q592 478 592 350Q592 223 572.5 160.5Q553 98 513 59Q477 23 428.5 5.5Q380 -12 326 -12Q272 -12 223.5 5.5Q175 23 139 59ZM397 160Q414 179 421.0 216.0Q428 253 428 350Q428 447 421.0 484.0Q414 521 397 540Q373 569 326 569Q279 569 255 540Q238 521 231.0 484.0Q224 447 224 350Q224 253 231.0 216.0Q238 179 255 160Q279 131 326 131Q373 131 397 160Z" transform="translate(448.100 137.000) scale(0.022000 -0.022000)" />
    <path d="M212 380 295 420Q328 434 342.5 453.0Q357 472 357 500Q357 533 331.5 554.0Q306 575 262 575Q182 575 99 533L53 657Q105 687 157.0 699.0Q209 711 271 711Q330 711 385.0 689.5Q440 668 475.5 621.0Q511 574 511 502Q511 431 476.5 383.5Q442 336 376 305L295 266Q204 223 204 159V142H502V0H50V139Q50 224 88.5 281.5Q127 339 212 380Z" transform="translate(464.444 137.000) scale(0.022000 -0.022000)" />
    <path d="M30 230Q30 287 49.0 339.5Q68 392 123 475L271 700H446L267 448Q263 443 263 437Q263 430 270 430Q275 430 279 432L329 454Q349 456 352 456Q405 456 452.0 427.0Q499 398 527.0 346.0Q555 294 555 230Q555 157 522.0 102.0Q489 47 429.5 17.5Q370 -12 292 -12Q169 -12 99.5 53.0Q30 118 30 230ZM405 225Q405 279 375.5 309.5Q346 340 293 340Q240 340 209.5 310.0Q179 280 179 228Q179 178 209.5 149.0Q240 120 293 120Q345 120 375.0 148.0Q405 176 405 225Z" transform="translate(478.544 137.000) scale(0.022000 -0.022000)" />
  </g>
</svg>
